<?xml version="1.0" encoding="iso-8859-1"?>
<!-- Generator: Adobe Illustrator 19.0.0, SVG Export Plug-In . SVG Version: 6.00 Build 0)  -->
<svg version="1.1" id="Layer_1" xmlns="http://www.w3.org/2000/svg" xmlns:xlink="http://www.w3.org/1999/xlink" x="0px" y="0px"
	 viewBox="0 0 511.999 511.999" style="enable-background:new 0 0 511.999 511.999;" xml:space="preserve">
<path style="fill:#F78A68;" d="M380.266,421.979c2.812-4.152,61.749-92.881,22.037-145.743
	c-40.668-54.136-91.212-13.512-55.553,9.008C377.674,304.765,416.266,364.272,380.266,421.979z M188.67,441.884
	c-10.173-4.23-19.861-9.393-28.946-15.379l-0.132,1.032c-137.899-11.688-148.94-92.86-148.94-92.86c27.266,11.655,41.547,0,41.547,0
	c-31.165-14.303-32.978-53.191-32.978-53.191c21.542,11.688,45.952,0,45.952,0c-25.959-3.9-31.155-49.566-31.155-49.566
	s51.181,37.548,64.484-14.413c0.252-1.154,0.527-2.295,0.802-3.428c1.637-6.679,3.57-13.106,5.789-19.257
	c4.174-11.634,9.348-22.322,15.478-32.023c7.931-12.556,17.456-23.454,28.452-32.616c8.866-7.382,18.708-13.644,29.451-18.72
	c22.158-10.458,48.16-15.896,77.524-15.896s55.366,5.438,77.524,15.896c8.821,4.174,17.039,9.14,24.607,14.874
	c1.648,1.241,3.263,2.527,4.844,3.845c11.008,9.172,20.531,20.081,28.463,32.649c6.13,9.689,11.304,20.367,15.468,31.99
	c2.219,6.151,4.152,12.579,5.789,19.258c0.275,1.131,0.55,2.274,0.802,3.428c13.303,51.961,64.484,14.413,64.484,14.413
	s-5.196,45.667-31.155,49.566c0,0,24.41,11.688,45.952,0c0,0-1.813,38.888-32.978,53.191c0,0,14.281,11.655,41.547,0
	c0,0-11.041,81.171-148.94,92.86l-0.132-1.032c-9.085,5.987-18.774,11.15-28.946,15.379c-20.048,8.349-42.008,13.084-65.034,13.369
	c-0.758,0.022-1.527,0.022-2.295,0.022c-0.769,0-1.538,0-2.295-0.022C230.679,454.968,208.719,450.233,188.67,441.884z
	 M131.733,421.979c-35.999-57.706,2.593-117.214,33.516-136.735c35.658-22.52-14.885-63.144-55.553-9.008
	C69.984,329.097,128.921,417.826,131.733,421.979z M316.276,235.765c13.051-17.236,36.351-51.829,7.009-44.656
	c-16.599,4.065-27.969,13.106-35.538,22.125c-8.7,10.371-3.153,26.31,10.051,29.276
	C304.753,244.081,311.981,241.445,316.276,235.765z M214.201,242.51c13.204-2.967,18.753-18.906,10.052-29.276
	c-7.569-9.019-18.939-18.06-35.538-22.125c-29.342-7.173-6.042,27.42,7.009,44.656C200.019,241.445,207.247,244.081,214.201,242.51z
	"/>
<path style="fill:#F0DF9E;" d="M258.296,455.275c25.552,0,48.611-4.361,65.034-13.392c15.588-8.58,25.179-21.367,25.179-38.635
	c0-35.439-44.985-76.294-94.804-76.294s-90.212,40.855-90.212,76.294c0,17.269,9.59,30.056,25.179,38.635
	c16.423,9.03,44.073,13.369,69.626,13.369"/>
<path style="fill:#666666;" d="M253.704,369.27c-14.918,0-27.013,4.966-27.013,15.577s12.095,22.849,27.013,22.849h4.592
	c14.918,0,27.013-12.238,27.013-22.849c0-10.611-12.095-15.577-27.013-15.577H253.704z"/>
<path style="fill:#F78A68;" d="M453.55,64.667c24.596,22.223,2.274,86.994-20.993,112.732c-7.317,8.096-16.181,13.929-25.651,17.423
	c-4.164-11.622-9.337-22.301-15.468-31.99l0.077-0.044c6.525-0.802,12.886-3.922,17.73-9.294
	c10.348-11.446,20.279-40.262,9.337-50.148c-10.931-9.887-38.602,2.9-48.951,14.347c-3.351,3.703-5.558,8.02-6.657,12.49
	c-1.582-1.319-3.197-2.603-4.844-3.845c-7.569-5.734-15.786-10.7-24.607-14.874c2.582-5.152,5.91-10.052,9.986-14.566
	C366.766,71.17,428.965,42.444,453.55,64.667z"/>
<g>
	<path style="fill:#F0DF9E;" d="M418.584,103.347c10.942,9.887,1.011,38.701-9.337,50.148c-4.844,5.372-11.205,8.492-17.73,9.294
		l-0.077,0.044c-7.931-12.567-17.456-23.476-28.463-32.649c1.098-4.471,3.306-8.789,6.657-12.49
		C379.981,106.247,407.653,93.46,418.584,103.347z"/>
	<path style="fill:#F0DF9E;" d="M402.304,276.236c39.712,52.862-19.224,141.591-22.037,145.743
		c35.999-57.706-2.593-117.214-33.516-136.735C311.092,262.723,361.635,222.099,402.304,276.236z"/>
	<path style="fill:#F0DF9E;" d="M323.285,191.109c29.342-7.173,6.042,27.42-7.009,44.656c-4.295,5.68-11.523,8.316-18.478,6.745
		c-13.204-2.967-18.752-18.906-10.051-29.276C295.317,204.215,306.686,195.174,323.285,191.109z"/>
	<path style="fill:#F0DF9E;" d="M224.252,213.234c8.7,10.371,3.153,26.31-10.052,29.276c-6.954,1.571-14.182-1.065-18.478-6.745
		c-13.051-17.236-36.351-51.829-7.009-44.656C205.314,195.174,216.683,204.215,224.252,213.234z"/>
</g>
<path style="fill:#F78A68;" d="M168.49,96.899c4.075,4.515,7.393,9.414,9.986,14.566c-10.743,5.076-20.587,11.337-29.451,18.72
	c-1.098-4.482-3.306-8.789-6.657-12.49c-10.348-11.447-38.021-24.234-48.951-14.347c-10.942,9.887-1.011,38.701,9.337,50.148
	c4.867,5.394,11.271,8.525,17.818,9.304c-6.13,9.7-11.304,20.389-15.478,32.023h-0.011c-9.47-3.494-18.323-9.327-25.64-17.423
	C56.176,151.661,33.853,86.891,58.449,64.667C83.035,42.444,145.234,71.17,168.49,96.899z"/>
<g>
	<path style="fill:#F0DF9E;" d="M109.696,276.236c40.668-54.136,91.212-13.512,55.553,9.008
		c-30.923,19.521-69.515,79.029-33.516,136.735C128.921,417.826,69.984,329.097,109.696,276.236z"/>
	<path style="fill:#F0DF9E;" d="M142.367,117.694c3.35,3.703,5.558,8.008,6.657,12.49c-10.996,9.162-20.521,20.06-28.452,32.616
		c-6.548-0.78-12.952-3.91-17.818-9.304c-10.348-11.447-20.279-40.262-9.337-50.148C104.347,93.46,132.018,106.247,142.367,117.694z
		"/>
</g>
<path d="M0.097,336.113c0.131,0.964,3.464,23.88,25.471,47.82c28.306,30.792,72.886,49.015,132.517,54.166
	c8.285,5.143,17.007,9.638,25.987,13.403c12.838,6.903,32.047,11.671,53.698,13.532c5.203,0.503,10.445,0.801,15.722,0.869
	c0.829,0.022,1.668,0.023,2.507,0.023c0.594,0,1.184-0.009,1.776-0.017c0.173,0.009,0.345,0.017,0.521,0.017
	c28.086,0,52.113-4.982,69.571-14.399c9.005-3.772,17.745-8.276,26.048-13.429c59.63-5.151,104.21-23.372,132.517-54.166
	c22.007-23.94,25.34-46.855,25.471-47.82c0.516-3.8-1.049-7.584-4.101-9.909c-3.05-2.324-7.114-2.829-10.641-1.321
	c-4.514,1.93-8.524,3.085-12.037,3.709c16.799-19.587,18.23-45.202,18.296-46.61c0.179-3.84-1.725-7.479-4.982-9.52
	c-3.255-2.043-7.362-2.171-10.739-0.338c-4.723,2.562-9.729,3.63-14.467,3.851c11.886-16.241,14.915-39.166,15.334-42.851
	c0.477-4.197-1.579-8.272-5.228-10.399c-3.649-2.126-8.218-1.89-11.637,0.592c-5.426,3.944-23.516,14.27-35.101,10.089
	c-5.84-2.105-10.127-8.285-12.739-18.372c-0.258-1.166-0.536-2.322-0.819-3.49c-0.913-3.722-1.927-7.391-3.022-10.988
	c7.621-4.097,14.574-9.522,20.439-16.012c13.055-14.442,25.18-38.897,30.891-62.302c7.201-29.507,3.415-52.76-10.657-65.475
	c-14.067-12.717-37.583-14.14-66.216-4.007c-22.713,8.039-45.821,22.562-58.874,37.001c-2.349,2.602-4.506,5.344-6.459,8.203
	c-1.97-0.786-3.955-1.549-5.961-2.26c-5.544-1.971-11.634,0.929-13.602,6.474c-1.968,5.543,0.93,11.634,6.474,13.602
	c4.431,1.573,8.779,3.363,12.912,5.313c8.133,3.847,15.78,8.469,22.756,13.755c1.453,1.094,2.945,2.278,4.433,3.518
	c10.142,8.452,18.982,18.596,26.281,30.162c5.713,9.03,10.572,19.085,14.448,29.907c2.086,5.783,3.924,11.899,5.458,18.156
	c0.256,1.055,0.512,2.12,0.748,3.196c0.027,0.12,0.055,0.242,0.086,0.362c4.475,17.477,13.315,28.69,26.275,33.326
	c11.031,3.947,22.721,2.093,32.488-1.317c-3.589,9.168-9.025,17.642-16.697,18.794c-4.627,0.694-8.258,4.327-8.952,8.954
	c-0.692,4.628,1.714,9.165,5.933,11.187c0.905,0.434,17.359,8.141,36.578,5.778c-3.371,9.946-10.097,21.998-23.447,28.125
	c-3.343,1.534-5.657,4.683-6.123,8.331c-0.467,3.648,0.982,7.277,3.831,9.603c1.491,1.218,12.277,9.351,31.373,7.301
	c-3.174,6.04-7.86,13.143-14.724,20.392c-16.222,17.128-39.687,29.938-69.095,37.929c5.358-9.968,11.622-23.058,16.68-37.702
	c14.3-41.405,12.059-76.334-6.48-101.012c-17.996-23.956-41.349-35.146-62.458-29.943c-12.985,3.202-22.2,12.267-24.047,23.655
	c-1.882,11.601,4.222,22.791,16.749,30.702c26.282,16.59,61.882,68.572,31.302,120.206c-4.816,0.737-9.751,1.368-14.801,1.89
	c1.056-4.165,1.596-8.536,1.596-13.099c0-20.552-11.857-42.275-32.53-59.6c-20.737-17.377-47.318-27.345-72.926-27.345
	c-56.804,0-100.864,46.738-100.864,86.946c0,4.562,0.539,8.934,1.596,13.099c-5.05-0.522-9.985-1.153-14.801-1.89
	c-30.58-51.634,5.019-103.616,31.304-120.207c12.524-7.91,18.628-19.101,16.747-30.701c-1.847-11.388-11.062-20.453-24.047-23.655
	c-21.115-5.206-44.461,5.988-62.458,29.943C82.641,294.516,80.4,329.445,94.7,370.85c5.056,14.643,11.322,27.733,16.68,37.702
	c-29.409-7.991-52.874-20.801-69.095-37.929c-6.865-7.25-11.553-14.355-14.725-20.392c19.097,2.046,29.884-6.083,31.374-7.301
	c2.849-2.325,4.298-5.954,3.831-9.603c-0.467-3.648-2.78-6.797-6.123-8.331c-13.226-6.069-19.959-18.147-23.367-28.117
	c19.188,2.331,35.594-5.354,36.499-5.787c4.219-2.021,6.627-6.558,5.933-11.187c-0.693-4.627-4.326-8.259-8.952-8.954
	c-7.673-1.153-13.109-9.626-16.697-18.793c9.764,3.406,21.461,5.262,32.488,1.316c12.96-4.638,21.8-15.85,26.275-33.326
	c0.031-0.12,0.06-0.242,0.086-0.362c0.235-1.076,0.492-2.141,0.742-3.172c1.539-6.28,3.378-12.398,5.469-18.196
	c3.886-10.828,8.751-20.898,14.458-29.932c7.289-11.539,16.126-21.673,26.262-30.118c8.164-6.797,17.31-12.609,27.185-17.273
	c20.913-9.871,45.466-14.876,72.977-14.876c5.882,0,10.652-4.77,10.652-10.652c0-5.882-4.77-10.652-10.652-10.652
	c-26.918,0-51.473,4.383-73.154,13.04c-1.958-2.866-4.113-5.607-6.455-8.202c-13.049-14.435-36.156-28.958-58.87-36.996
	c-28.632-10.131-52.148-8.711-66.214,4.005c-14.074,12.716-17.86,35.97-10.659,65.477c5.712,23.405,17.837,47.861,30.89,62.301
	c5.869,6.494,12.821,11.92,20.439,16.017c-1.096,3.601-2.111,7.276-3.026,11.009c-0.278,1.145-0.555,2.3-0.814,3.466
	c-2.612,10.087-6.898,16.268-12.739,18.372c-11.581,4.179-29.674-6.146-35.083-10.075c-3.41-2.504-7.983-2.75-11.645-0.626
	c-3.662,2.123-5.718,6.213-5.24,10.419c0.42,3.686,3.447,26.606,15.33,42.846c-4.738-0.22-9.746-1.287-14.463-3.845
	c-3.38-1.836-7.483-1.706-10.739,0.338c-3.257,2.042-5.161,5.68-4.982,9.52c0.066,1.408,1.497,27.024,18.295,46.61
	c-3.511-0.625-7.523-1.78-12.036-3.709c-3.528-1.508-7.592-1.002-10.641,1.321C1.146,328.529-0.419,332.314,0.097,336.113z
	 M348.66,107.358c0.876-1.132,1.783-2.243,2.75-3.315c10.686-11.823,30.85-24.36,50.175-31.199
	c20.305-7.186,37.061-7.289,44.824-0.272c7.764,7.015,9.35,23.695,4.245,44.619c-4.86,19.914-15.308,41.24-25.999,53.068
	c-3.539,3.916-7.624,7.278-12.068,10.001c-1.716-3.967-3.551-7.836-5.512-11.585c3.735-2.091,7.147-4.791,10.072-8.036
	c6.515-7.206,12.301-18.808,15.099-30.278c3.743-15.334,1.426-27.735-6.517-34.913c-7.943-7.186-20.516-8.237-35.395-2.969
	c-11.128,3.941-22.089,10.866-28.599,18.068c-0.961,1.061-1.849,2.18-2.688,3.335C355.696,111.58,352.231,109.4,348.66,107.358z
	 M375.702,127.24c0.544-0.844,1.153-1.651,1.832-2.402c4.091-4.525,12.278-9.573,19.912-12.275
	c8.385-2.971,13.049-2.169,13.997-1.31c0.947,0.855,2.218,5.416,0.109,14.06c-1.919,7.864-6.115,16.517-10.214,21.05
	c-1.548,1.716-3.382,3.094-5.387,4.1C389.948,141.96,383.173,134.19,375.702,127.24z M352.437,276.237
	c-4.811-3.039-7.529-6.592-7.093-9.278c0.356-2.197,3.049-5.131,8.118-6.38c1.525-0.377,3.198-0.581,4.994-0.581
	c9.613,0,22.733,5.863,35.332,22.634c13.545,18.031,13.511,41.704,8.282,64.1c-1.019-3.964-2.205-7.682-3.467-11.115
	C387.937,306.59,367.76,285.911,352.437,276.237z M253.704,337.606c44.531,0,84.152,36.707,84.152,65.642
	c0,12.288-6.291,21.787-19.198,29.035c-19.184,7.905-39.511,12.052-60.435,12.318c-6.31-0.002-12.529-0.273-18.526-0.783
	c-15.966-1.557-31.502-5.415-46.355-11.535c-12.909-7.25-19.199-16.748-19.199-29.035
	C174.144,373.517,209.633,337.606,253.704,337.606z M118.212,282.632c12.6-16.772,25.719-22.634,35.332-22.634
	c1.796,0,3.468,0.203,4.994,0.581c5.069,1.249,7.762,4.184,8.118,6.38c0.436,2.685-2.283,6.239-7.091,9.277
	c-15.325,9.674-35.501,30.354-46.167,59.381c-1.262,3.433-2.448,7.152-3.467,11.115
	C104.701,324.337,104.667,300.664,118.212,282.632z M116.041,150.461c-2-1.007-3.834-2.387-5.387-4.108
	c-4.09-4.524-8.286-13.176-10.206-21.041c-2.109-8.644-0.838-13.205,0.113-14.065c0.944-0.854,5.605-1.657,13.991,1.314
	c7.633,2.702,15.821,7.75,19.916,12.279c0.686,0.757,1.292,1.558,1.832,2.392C128.826,134.188,122.046,141.959,116.041,150.461z
	 M87.343,170.256c-10.69-11.828-21.139-33.153-25.998-53.067c-5.105-20.923-3.519-37.603,4.247-44.621
	c7.76-7.014,24.517-6.912,44.822,0.274c19.325,6.84,39.488,19.377,50.169,31.194c0.969,1.074,1.881,2.191,2.761,3.331
	c-3.563,2.039-7.036,4.205-10.393,6.51c-0.836-1.153-1.723-2.269-2.682-3.329c-6.514-7.206-17.474-14.131-28.603-18.072
	c-14.882-5.268-27.452-4.216-35.391,2.964c-7.948,7.181-10.265,19.582-6.522,34.917c2.798,11.471,8.584,23.072,15.092,30.27
	c2.932,3.25,6.345,5.952,10.078,8.043c-1.96,3.751-3.794,7.62-5.51,11.588C94.972,177.541,90.886,174.176,87.343,170.256z"/>
<path d="M294.536,88.188c-1.369-0.244-2.747-0.474-4.134-0.691c-5.798-0.912-11.262,3.06-12.173,8.873
	c-0.911,5.812,3.061,11.262,8.873,12.173c1.241,0.195,2.473,0.402,3.699,0.619c0.633,0.113,1.26,0.167,1.88,0.167
	c5.065,0,9.556-3.627,10.474-8.787C304.188,94.75,300.328,89.219,294.536,88.188z"/>
<path d="M214.662,433.52h2.418c14.097,0,27.932-4.915,38.921-13.643c10.988,8.727,24.824,13.643,38.921,13.643h2.418
	c5.882,0,10.652-4.77,10.652-10.652s-4.77-10.652-10.652-10.652h-2.418c-4.364,0-8.688-0.724-12.801-2.077
	c8.3-6.305,13.841-15.554,13.841-25.291c0-15.934-14.785-26.229-37.665-26.229h-4.592c-22.88,0-37.665,10.295-37.665,26.229
	c0,9.737,5.541,18.986,13.841,25.291c-4.113,1.353-8.436,2.077-12.801,2.077h-2.418c-5.882,0-10.652,4.77-10.652,10.652
	S208.779,433.52,214.662,433.52z M253.704,379.922h4.592c10.536,0,16.361,2.912,16.361,4.925c0,4.176-6.909,12.197-16.361,12.197
	h-4.592c-9.452,0-16.361-8.022-16.361-12.197C237.343,382.835,243.168,379.922,253.704,379.922z"/>
<path d="M208.707,279.338c-13.451,0-24.394,10.948-24.394,24.406c0,5.882,4.77,10.652,10.652,10.652
	c5.882,0,10.652-4.77,10.652-10.652c0-1.71,1.387-3.102,3.09-3.102c1.71,0,3.102,1.392,3.102,3.102
	c0,5.882,4.77,10.652,10.652,10.652s10.652-4.77,10.652-10.652C233.113,290.286,222.165,279.338,208.707,279.338z"/>
<path d="M232.412,206.386c-10.896-12.982-24.744-21.602-41.167-25.624c-14.667-3.587-21.484,1.354-24.621,6.129
	c-4.885,7.436-6.257,19.822,20.605,55.299c5.503,7.275,14.085,11.416,22.992,11.416c2.103,0,4.226-0.231,6.327-0.706
	c9.907-2.23,17.766-9.314,21.023-18.953C240.8,224.389,238.871,214.086,232.412,206.386z M217.388,227.127
	c-0.413,1.221-1.776,4.149-5.523,4.99c-0.004,0.001-0.007,0.002-0.012,0.003c-2.867,0.644-5.868-0.442-7.638-2.784
	c-10.195-13.466-15.301-22.498-17.534-27.756c11.707,2.972,21.601,9.195,29.41,18.5C218.457,222.9,217.786,225.948,217.388,227.127z
	"/>
<path d="M278.887,303.743c0,5.882,4.77,10.652,10.652,10.652s10.652-4.77,10.652-10.652c0-1.71,1.392-3.102,3.102-3.102
	c1.704,0,3.09,1.392,3.09,3.102c0,5.882,4.77,10.652,10.652,10.652s10.652-4.77,10.652-10.652c0-13.458-10.943-24.406-24.394-24.406
	C289.835,279.338,278.887,290.286,278.887,303.743z"/>
<path d="M345.377,186.892c-3.136-4.774-9.956-9.717-24.624-6.128c-16.42,4.02-30.269,12.641-41.165,25.624
	c-6.458,7.699-8.387,18.001-5.158,27.56c3.257,9.639,11.116,16.722,21.023,18.953c2.104,0.475,4.225,0.706,6.328,0.706
	c8.905,0,17.488-4.14,22.988-11.411C351.634,206.714,350.262,194.328,345.377,186.892z M307.781,229.34
	c-1.767,2.336-4.761,3.429-7.635,2.78c-0.004-0.001-0.007-0.002-0.012-0.003c-3.747-0.841-5.11-3.77-5.523-4.99
	c-0.398-1.179-1.069-4.228,1.295-7.045c7.811-9.308,17.706-15.53,29.411-18.501C323.085,206.838,317.978,215.872,307.781,229.34z"/>
<g>
</g>
<g>
</g>
<g>
</g>
<g>
</g>
<g>
</g>
<g>
</g>
<g>
</g>
<g>
</g>
<g>
</g>
<g>
</g>
<g>
</g>
<g>
</g>
<g>
</g>
<g>
</g>
<g>
</g>
</svg>
